<mxfile host="app.diagrams.net" agent="Mozilla/5.0 (Windows NT 10.0; Win64; x64) AppleWebKit/537.36 (KHTML, like Gecko) Chrome/127.0.0.0 Safari/537.36 OPR/113.0.0.0" version="24.8.4">
  <diagram name="Page-1" id="GX8tv0j_dOlCY0LLxnS_">
    <mxGraphModel dx="2280" dy="863" grid="1" gridSize="10" guides="1" tooltips="1" connect="1" arrows="1" fold="1" page="1" pageScale="1" pageWidth="827" pageHeight="1169" math="0" shadow="0">
      <root>
        <mxCell id="0" />
        <mxCell id="1" parent="0" />
        <mxCell id="4njIVKc2s3jq8I4lbXAo-6" value="" style="verticalLabelPosition=bottom;shadow=0;dashed=0;align=center;html=1;verticalAlign=top;shape=mxgraph.electrical.logic_gates.d_type_flip-flop;" vertex="1" parent="1">
          <mxGeometry x="250" y="70" width="100" height="60" as="geometry" />
        </mxCell>
        <mxCell id="4njIVKc2s3jq8I4lbXAo-7" value="" style="verticalLabelPosition=bottom;shadow=0;dashed=0;align=center;html=1;verticalAlign=top;shape=mxgraph.electrical.logic_gates.d_type_flip-flop;" vertex="1" parent="1">
          <mxGeometry x="80" y="70" width="100" height="60" as="geometry" />
        </mxCell>
        <mxCell id="4njIVKc2s3jq8I4lbXAo-39" style="edgeStyle=orthogonalEdgeStyle;rounded=0;orthogonalLoop=1;jettySize=auto;html=1;exitX=1;exitY=0.25;exitDx=0;exitDy=0;exitPerimeter=0;entryX=0;entryY=0.5;entryDx=0;entryDy=0;" edge="1" parent="1" source="4njIVKc2s3jq8I4lbXAo-8" target="4njIVKc2s3jq8I4lbXAo-33">
          <mxGeometry relative="1" as="geometry">
            <Array as="points">
              <mxPoint x="590" y="85" />
              <mxPoint x="590" y="145" />
            </Array>
          </mxGeometry>
        </mxCell>
        <mxCell id="4njIVKc2s3jq8I4lbXAo-8" value="" style="verticalLabelPosition=bottom;shadow=0;dashed=0;align=center;html=1;verticalAlign=top;shape=mxgraph.electrical.logic_gates.d_type_flip-flop;" vertex="1" parent="1">
          <mxGeometry x="440" y="70" width="100" height="60" as="geometry" />
        </mxCell>
        <mxCell id="4njIVKc2s3jq8I4lbXAo-9" value="" style="verticalLabelPosition=bottom;shadow=0;dashed=0;align=center;html=1;verticalAlign=top;shape=mxgraph.electrical.logic_gates.d_type_flip-flop;" vertex="1" parent="1">
          <mxGeometry x="60" y="185" width="140" height="70" as="geometry" />
        </mxCell>
        <mxCell id="4njIVKc2s3jq8I4lbXAo-11" value="" style="verticalLabelPosition=bottom;shadow=0;dashed=0;align=center;html=1;verticalAlign=top;shape=mxgraph.electrical.logic_gates.d_type_flip-flop;" vertex="1" parent="1">
          <mxGeometry x="240" y="185" width="140" height="70" as="geometry" />
        </mxCell>
        <mxCell id="4njIVKc2s3jq8I4lbXAo-91" style="edgeStyle=orthogonalEdgeStyle;rounded=0;orthogonalLoop=1;jettySize=auto;html=1;exitX=1;exitY=0.25;exitDx=0;exitDy=0;exitPerimeter=0;entryX=0;entryY=0.5;entryDx=0;entryDy=0;" edge="1" parent="1" source="4njIVKc2s3jq8I4lbXAo-12" target="4njIVKc2s3jq8I4lbXAo-34">
          <mxGeometry relative="1" as="geometry" />
        </mxCell>
        <mxCell id="4njIVKc2s3jq8I4lbXAo-12" value="" style="verticalLabelPosition=bottom;shadow=0;dashed=0;align=center;html=1;verticalAlign=top;shape=mxgraph.electrical.logic_gates.d_type_flip-flop;" vertex="1" parent="1">
          <mxGeometry x="430" y="185" width="140" height="70" as="geometry" />
        </mxCell>
        <mxCell id="4njIVKc2s3jq8I4lbXAo-16" value="&lt;font style=&quot;font-size: 15px;&quot;&gt;&lt;b&gt;FIFO&lt;/b&gt;&lt;/font&gt;" style="rounded=0;whiteSpace=wrap;html=1;" vertex="1" parent="1">
          <mxGeometry x="630" y="130" width="200" height="120" as="geometry" />
        </mxCell>
        <mxCell id="4njIVKc2s3jq8I4lbXAo-17" style="edgeStyle=orthogonalEdgeStyle;rounded=0;orthogonalLoop=1;jettySize=auto;html=1;exitX=1;exitY=0.25;exitDx=0;exitDy=0;exitPerimeter=0;entryX=0;entryY=0.25;entryDx=0;entryDy=0;entryPerimeter=0;" edge="1" parent="1" source="4njIVKc2s3jq8I4lbXAo-7" target="4njIVKc2s3jq8I4lbXAo-6">
          <mxGeometry relative="1" as="geometry" />
        </mxCell>
        <mxCell id="4njIVKc2s3jq8I4lbXAo-18" style="edgeStyle=orthogonalEdgeStyle;rounded=0;orthogonalLoop=1;jettySize=auto;html=1;exitX=1;exitY=0.25;exitDx=0;exitDy=0;exitPerimeter=0;entryX=0;entryY=0.25;entryDx=0;entryDy=0;entryPerimeter=0;" edge="1" parent="1" source="4njIVKc2s3jq8I4lbXAo-6" target="4njIVKc2s3jq8I4lbXAo-8">
          <mxGeometry relative="1" as="geometry" />
        </mxCell>
        <mxCell id="4njIVKc2s3jq8I4lbXAo-20" value="CLOCK" style="text;html=1;align=center;verticalAlign=middle;whiteSpace=wrap;rounded=0;" vertex="1" parent="1">
          <mxGeometry x="-100" y="130" width="60" height="30" as="geometry" />
        </mxCell>
        <mxCell id="4njIVKc2s3jq8I4lbXAo-23" value="" style="endArrow=none;html=1;rounded=0;entryX=0;entryY=0.75;entryDx=0;entryDy=0;entryPerimeter=0;" edge="1" parent="1" target="4njIVKc2s3jq8I4lbXAo-7">
          <mxGeometry width="50" height="50" relative="1" as="geometry">
            <mxPoint x="-40" y="150" as="sourcePoint" />
            <mxPoint x="80" y="120" as="targetPoint" />
            <Array as="points">
              <mxPoint x="80" y="150" />
            </Array>
          </mxGeometry>
        </mxCell>
        <mxCell id="4njIVKc2s3jq8I4lbXAo-24" value="" style="endArrow=none;html=1;rounded=0;entryX=0;entryY=0.75;entryDx=0;entryDy=0;entryPerimeter=0;" edge="1" parent="1" target="4njIVKc2s3jq8I4lbXAo-6">
          <mxGeometry width="50" height="50" relative="1" as="geometry">
            <mxPoint x="80" y="150" as="sourcePoint" />
            <mxPoint x="250" y="120" as="targetPoint" />
            <Array as="points">
              <mxPoint x="250" y="150" />
            </Array>
          </mxGeometry>
        </mxCell>
        <mxCell id="4njIVKc2s3jq8I4lbXAo-25" value="" style="endArrow=none;html=1;rounded=0;entryX=0;entryY=0.75;entryDx=0;entryDy=0;entryPerimeter=0;" edge="1" parent="1" target="4njIVKc2s3jq8I4lbXAo-8">
          <mxGeometry width="50" height="50" relative="1" as="geometry">
            <mxPoint x="250" y="150" as="sourcePoint" />
            <mxPoint x="440" y="100" as="targetPoint" />
            <Array as="points">
              <mxPoint x="440" y="150" />
            </Array>
          </mxGeometry>
        </mxCell>
        <mxCell id="4njIVKc2s3jq8I4lbXAo-27" style="edgeStyle=orthogonalEdgeStyle;rounded=0;orthogonalLoop=1;jettySize=auto;html=1;exitX=1;exitY=0.25;exitDx=0;exitDy=0;exitPerimeter=0;entryX=0;entryY=0.25;entryDx=0;entryDy=0;entryPerimeter=0;" edge="1" parent="1" source="4njIVKc2s3jq8I4lbXAo-11" target="4njIVKc2s3jq8I4lbXAo-12">
          <mxGeometry relative="1" as="geometry" />
        </mxCell>
        <mxCell id="4njIVKc2s3jq8I4lbXAo-28" style="edgeStyle=orthogonalEdgeStyle;rounded=0;orthogonalLoop=1;jettySize=auto;html=1;exitX=1;exitY=0.25;exitDx=0;exitDy=0;exitPerimeter=0;entryX=0;entryY=0.25;entryDx=0;entryDy=0;entryPerimeter=0;" edge="1" parent="1" source="4njIVKc2s3jq8I4lbXAo-9" target="4njIVKc2s3jq8I4lbXAo-11">
          <mxGeometry relative="1" as="geometry" />
        </mxCell>
        <mxCell id="4njIVKc2s3jq8I4lbXAo-29" value="DATA_IN" style="text;html=1;align=center;verticalAlign=middle;whiteSpace=wrap;rounded=0;" vertex="1" parent="1">
          <mxGeometry y="185" width="60" height="30" as="geometry" />
        </mxCell>
        <mxCell id="4njIVKc2s3jq8I4lbXAo-30" value="DATA_IN_VALID" style="text;html=1;align=center;verticalAlign=middle;whiteSpace=wrap;rounded=0;" vertex="1" parent="1">
          <mxGeometry x="-70" y="60" width="60" height="30" as="geometry" />
        </mxCell>
        <mxCell id="4njIVKc2s3jq8I4lbXAo-32" value="" style="endArrow=none;html=1;rounded=0;entryX=0;entryY=0.25;entryDx=0;entryDy=0;entryPerimeter=0;" edge="1" parent="1" target="4njIVKc2s3jq8I4lbXAo-7">
          <mxGeometry width="50" height="50" relative="1" as="geometry">
            <mxPoint x="10" y="85" as="sourcePoint" />
            <mxPoint x="50" y="99.74" as="targetPoint" />
          </mxGeometry>
        </mxCell>
        <mxCell id="4njIVKc2s3jq8I4lbXAo-33" value="WR_EN" style="text;html=1;align=center;verticalAlign=middle;whiteSpace=wrap;rounded=0;" vertex="1" parent="1">
          <mxGeometry x="630" y="130" width="60" height="30" as="geometry" />
        </mxCell>
        <mxCell id="4njIVKc2s3jq8I4lbXAo-34" value="IN" style="text;html=1;align=center;verticalAlign=middle;whiteSpace=wrap;rounded=0;" vertex="1" parent="1">
          <mxGeometry x="630" y="170" width="30" height="30" as="geometry" />
        </mxCell>
        <mxCell id="4njIVKc2s3jq8I4lbXAo-35" value="RD_EN" style="text;html=1;align=center;verticalAlign=middle;whiteSpace=wrap;rounded=0;" vertex="1" parent="1">
          <mxGeometry x="770" y="130" width="60" height="30" as="geometry" />
        </mxCell>
        <mxCell id="4njIVKc2s3jq8I4lbXAo-36" value="OUT" style="text;html=1;align=center;verticalAlign=middle;whiteSpace=wrap;rounded=0;" vertex="1" parent="1">
          <mxGeometry x="800" y="200" width="20" height="30" as="geometry" />
        </mxCell>
        <mxCell id="4njIVKc2s3jq8I4lbXAo-37" value="" style="endArrow=none;html=1;rounded=0;entryX=1;entryY=0.25;entryDx=0;entryDy=0;" edge="1" parent="1" target="4njIVKc2s3jq8I4lbXAo-16">
          <mxGeometry width="50" height="50" relative="1" as="geometry">
            <mxPoint x="630" y="160" as="sourcePoint" />
            <mxPoint x="680" y="110" as="targetPoint" />
          </mxGeometry>
        </mxCell>
        <mxCell id="4njIVKc2s3jq8I4lbXAo-38" value="&lt;font style=&quot;font-size: 10px;&quot;&gt;PROG_FULL&lt;/font&gt;" style="text;html=1;align=center;verticalAlign=middle;whiteSpace=wrap;rounded=0;rotation=0;" vertex="1" parent="1">
          <mxGeometry x="767" y="155" width="60" height="30" as="geometry" />
        </mxCell>
        <mxCell id="4njIVKc2s3jq8I4lbXAo-88" value="" style="endArrow=none;html=1;rounded=0;entryX=0;entryY=0.75;entryDx=0;entryDy=0;entryPerimeter=0;" edge="1" parent="1" target="4njIVKc2s3jq8I4lbXAo-9">
          <mxGeometry width="50" height="50" relative="1" as="geometry">
            <mxPoint x="-20" y="150" as="sourcePoint" />
            <mxPoint x="70" y="260" as="targetPoint" />
            <Array as="points">
              <mxPoint x="-20" y="270" />
              <mxPoint x="10" y="270" />
              <mxPoint x="60" y="270" />
            </Array>
          </mxGeometry>
        </mxCell>
        <mxCell id="4njIVKc2s3jq8I4lbXAo-89" value="" style="endArrow=none;html=1;rounded=0;entryX=0;entryY=0.75;entryDx=0;entryDy=0;entryPerimeter=0;" edge="1" parent="1" target="4njIVKc2s3jq8I4lbXAo-11">
          <mxGeometry width="50" height="50" relative="1" as="geometry">
            <mxPoint x="60" y="270" as="sourcePoint" />
            <mxPoint x="240" y="245" as="targetPoint" />
            <Array as="points">
              <mxPoint x="240" y="270" />
            </Array>
          </mxGeometry>
        </mxCell>
        <mxCell id="4njIVKc2s3jq8I4lbXAo-90" value="" style="endArrow=none;html=1;rounded=0;entryX=0;entryY=0.75;entryDx=0;entryDy=0;entryPerimeter=0;" edge="1" parent="1" target="4njIVKc2s3jq8I4lbXAo-12">
          <mxGeometry width="50" height="50" relative="1" as="geometry">
            <mxPoint x="240" y="270" as="sourcePoint" />
            <mxPoint x="430" y="245" as="targetPoint" />
            <Array as="points">
              <mxPoint x="430" y="270" />
            </Array>
          </mxGeometry>
        </mxCell>
        <mxCell id="4njIVKc2s3jq8I4lbXAo-92" value="" style="verticalLabelPosition=bottom;shadow=0;dashed=0;align=center;html=1;verticalAlign=top;shape=mxgraph.electrical.logic_gates.d_type_flip-flop;" vertex="1" parent="1">
          <mxGeometry x="250" y="300" width="100" height="60" as="geometry" />
        </mxCell>
        <mxCell id="4njIVKc2s3jq8I4lbXAo-93" value="" style="verticalLabelPosition=bottom;shadow=0;dashed=0;align=center;html=1;verticalAlign=top;shape=mxgraph.electrical.logic_gates.d_type_flip-flop;" vertex="1" parent="1">
          <mxGeometry x="80" y="300" width="100" height="60" as="geometry" />
        </mxCell>
        <mxCell id="4njIVKc2s3jq8I4lbXAo-94" style="edgeStyle=orthogonalEdgeStyle;rounded=0;orthogonalLoop=1;jettySize=auto;html=1;exitX=1;exitY=0.25;exitDx=0;exitDy=0;exitPerimeter=0;entryX=0;entryY=0.5;entryDx=0;entryDy=0;" edge="1" parent="1" source="4njIVKc2s3jq8I4lbXAo-95" target="4njIVKc2s3jq8I4lbXAo-112">
          <mxGeometry relative="1" as="geometry">
            <Array as="points">
              <mxPoint x="590" y="315" />
              <mxPoint x="590" y="375" />
            </Array>
          </mxGeometry>
        </mxCell>
        <mxCell id="4njIVKc2s3jq8I4lbXAo-95" value="" style="verticalLabelPosition=bottom;shadow=0;dashed=0;align=center;html=1;verticalAlign=top;shape=mxgraph.electrical.logic_gates.d_type_flip-flop;" vertex="1" parent="1">
          <mxGeometry x="440" y="300" width="100" height="60" as="geometry" />
        </mxCell>
        <mxCell id="4njIVKc2s3jq8I4lbXAo-96" value="" style="verticalLabelPosition=bottom;shadow=0;dashed=0;align=center;html=1;verticalAlign=top;shape=mxgraph.electrical.logic_gates.d_type_flip-flop;" vertex="1" parent="1">
          <mxGeometry x="60" y="415" width="140" height="70" as="geometry" />
        </mxCell>
        <mxCell id="4njIVKc2s3jq8I4lbXAo-97" value="" style="verticalLabelPosition=bottom;shadow=0;dashed=0;align=center;html=1;verticalAlign=top;shape=mxgraph.electrical.logic_gates.d_type_flip-flop;" vertex="1" parent="1">
          <mxGeometry x="240" y="415" width="140" height="70" as="geometry" />
        </mxCell>
        <mxCell id="4njIVKc2s3jq8I4lbXAo-98" style="edgeStyle=orthogonalEdgeStyle;rounded=0;orthogonalLoop=1;jettySize=auto;html=1;exitX=1;exitY=0.25;exitDx=0;exitDy=0;exitPerimeter=0;entryX=0;entryY=0.5;entryDx=0;entryDy=0;" edge="1" parent="1" source="4njIVKc2s3jq8I4lbXAo-99" target="4njIVKc2s3jq8I4lbXAo-113">
          <mxGeometry relative="1" as="geometry" />
        </mxCell>
        <mxCell id="4njIVKc2s3jq8I4lbXAo-99" value="" style="verticalLabelPosition=bottom;shadow=0;dashed=0;align=center;html=1;verticalAlign=top;shape=mxgraph.electrical.logic_gates.d_type_flip-flop;" vertex="1" parent="1">
          <mxGeometry x="430" y="415" width="140" height="70" as="geometry" />
        </mxCell>
        <mxCell id="4njIVKc2s3jq8I4lbXAo-100" value="&lt;font style=&quot;font-size: 15px;&quot;&gt;&lt;b&gt;FIFO&lt;/b&gt;&lt;/font&gt;" style="rounded=0;whiteSpace=wrap;html=1;" vertex="1" parent="1">
          <mxGeometry x="630" y="360" width="200" height="120" as="geometry" />
        </mxCell>
        <mxCell id="4njIVKc2s3jq8I4lbXAo-101" style="edgeStyle=orthogonalEdgeStyle;rounded=0;orthogonalLoop=1;jettySize=auto;html=1;exitX=1;exitY=0.25;exitDx=0;exitDy=0;exitPerimeter=0;entryX=0;entryY=0.25;entryDx=0;entryDy=0;entryPerimeter=0;" edge="1" parent="1" source="4njIVKc2s3jq8I4lbXAo-93" target="4njIVKc2s3jq8I4lbXAo-92">
          <mxGeometry relative="1" as="geometry" />
        </mxCell>
        <mxCell id="4njIVKc2s3jq8I4lbXAo-102" style="edgeStyle=orthogonalEdgeStyle;rounded=0;orthogonalLoop=1;jettySize=auto;html=1;exitX=1;exitY=0.25;exitDx=0;exitDy=0;exitPerimeter=0;entryX=0;entryY=0.25;entryDx=0;entryDy=0;entryPerimeter=0;" edge="1" parent="1" source="4njIVKc2s3jq8I4lbXAo-92" target="4njIVKc2s3jq8I4lbXAo-95">
          <mxGeometry relative="1" as="geometry" />
        </mxCell>
        <mxCell id="4njIVKc2s3jq8I4lbXAo-104" value="" style="endArrow=none;html=1;rounded=0;entryX=0;entryY=0.75;entryDx=0;entryDy=0;entryPerimeter=0;" edge="1" parent="1" target="4njIVKc2s3jq8I4lbXAo-93">
          <mxGeometry width="50" height="50" relative="1" as="geometry">
            <mxPoint x="-20" y="380" as="sourcePoint" />
            <mxPoint x="80" y="350" as="targetPoint" />
            <Array as="points">
              <mxPoint x="80" y="380" />
            </Array>
          </mxGeometry>
        </mxCell>
        <mxCell id="4njIVKc2s3jq8I4lbXAo-105" value="" style="endArrow=none;html=1;rounded=0;entryX=0;entryY=0.75;entryDx=0;entryDy=0;entryPerimeter=0;" edge="1" parent="1" target="4njIVKc2s3jq8I4lbXAo-92">
          <mxGeometry width="50" height="50" relative="1" as="geometry">
            <mxPoint x="80" y="380" as="sourcePoint" />
            <mxPoint x="250" y="350" as="targetPoint" />
            <Array as="points">
              <mxPoint x="250" y="380" />
            </Array>
          </mxGeometry>
        </mxCell>
        <mxCell id="4njIVKc2s3jq8I4lbXAo-106" value="" style="endArrow=none;html=1;rounded=0;entryX=0;entryY=0.75;entryDx=0;entryDy=0;entryPerimeter=0;" edge="1" parent="1" target="4njIVKc2s3jq8I4lbXAo-95">
          <mxGeometry width="50" height="50" relative="1" as="geometry">
            <mxPoint x="250" y="380" as="sourcePoint" />
            <mxPoint x="440" y="330" as="targetPoint" />
            <Array as="points">
              <mxPoint x="440" y="380" />
            </Array>
          </mxGeometry>
        </mxCell>
        <mxCell id="4njIVKc2s3jq8I4lbXAo-107" style="edgeStyle=orthogonalEdgeStyle;rounded=0;orthogonalLoop=1;jettySize=auto;html=1;exitX=1;exitY=0.25;exitDx=0;exitDy=0;exitPerimeter=0;entryX=0;entryY=0.25;entryDx=0;entryDy=0;entryPerimeter=0;" edge="1" parent="1" source="4njIVKc2s3jq8I4lbXAo-97" target="4njIVKc2s3jq8I4lbXAo-99">
          <mxGeometry relative="1" as="geometry" />
        </mxCell>
        <mxCell id="4njIVKc2s3jq8I4lbXAo-108" style="edgeStyle=orthogonalEdgeStyle;rounded=0;orthogonalLoop=1;jettySize=auto;html=1;exitX=1;exitY=0.25;exitDx=0;exitDy=0;exitPerimeter=0;entryX=0;entryY=0.25;entryDx=0;entryDy=0;entryPerimeter=0;" edge="1" parent="1" source="4njIVKc2s3jq8I4lbXAo-96" target="4njIVKc2s3jq8I4lbXAo-97">
          <mxGeometry relative="1" as="geometry" />
        </mxCell>
        <mxCell id="4njIVKc2s3jq8I4lbXAo-112" value="WR_EN" style="text;html=1;align=center;verticalAlign=middle;whiteSpace=wrap;rounded=0;" vertex="1" parent="1">
          <mxGeometry x="630" y="360" width="60" height="30" as="geometry" />
        </mxCell>
        <mxCell id="4njIVKc2s3jq8I4lbXAo-113" value="IN" style="text;html=1;align=center;verticalAlign=middle;whiteSpace=wrap;rounded=0;" vertex="1" parent="1">
          <mxGeometry x="630" y="400" width="30" height="30" as="geometry" />
        </mxCell>
        <mxCell id="4njIVKc2s3jq8I4lbXAo-114" value="RD_EN" style="text;html=1;align=center;verticalAlign=middle;whiteSpace=wrap;rounded=0;" vertex="1" parent="1">
          <mxGeometry x="770" y="360" width="60" height="30" as="geometry" />
        </mxCell>
        <mxCell id="4njIVKc2s3jq8I4lbXAo-115" value="OUT" style="text;html=1;align=center;verticalAlign=middle;whiteSpace=wrap;rounded=0;" vertex="1" parent="1">
          <mxGeometry x="800" y="430" width="20" height="30" as="geometry" />
        </mxCell>
        <mxCell id="4njIVKc2s3jq8I4lbXAo-116" value="" style="endArrow=none;html=1;rounded=0;entryX=1;entryY=0.25;entryDx=0;entryDy=0;" edge="1" parent="1" target="4njIVKc2s3jq8I4lbXAo-100">
          <mxGeometry width="50" height="50" relative="1" as="geometry">
            <mxPoint x="630" y="390" as="sourcePoint" />
            <mxPoint x="680" y="340" as="targetPoint" />
          </mxGeometry>
        </mxCell>
        <mxCell id="4njIVKc2s3jq8I4lbXAo-117" value="&lt;font style=&quot;font-size: 10px;&quot;&gt;PROG_FULL&lt;/font&gt;" style="text;html=1;align=center;verticalAlign=middle;whiteSpace=wrap;rounded=0;rotation=0;" vertex="1" parent="1">
          <mxGeometry x="762" y="385" width="70" height="30" as="geometry" />
        </mxCell>
        <mxCell id="4njIVKc2s3jq8I4lbXAo-118" value="" style="endArrow=none;html=1;rounded=0;entryX=0;entryY=0.75;entryDx=0;entryDy=0;entryPerimeter=0;" edge="1" parent="1" target="4njIVKc2s3jq8I4lbXAo-96">
          <mxGeometry width="50" height="50" relative="1" as="geometry">
            <mxPoint x="-20" y="270" as="sourcePoint" />
            <mxPoint x="70" y="490" as="targetPoint" />
            <Array as="points">
              <mxPoint x="-20" y="500" />
              <mxPoint x="10" y="500" />
              <mxPoint x="60" y="500" />
            </Array>
          </mxGeometry>
        </mxCell>
        <mxCell id="4njIVKc2s3jq8I4lbXAo-119" value="" style="endArrow=none;html=1;rounded=0;entryX=0;entryY=0.75;entryDx=0;entryDy=0;entryPerimeter=0;" edge="1" parent="1" target="4njIVKc2s3jq8I4lbXAo-97">
          <mxGeometry width="50" height="50" relative="1" as="geometry">
            <mxPoint x="60" y="500" as="sourcePoint" />
            <mxPoint x="240" y="475" as="targetPoint" />
            <Array as="points">
              <mxPoint x="240" y="500" />
            </Array>
          </mxGeometry>
        </mxCell>
        <mxCell id="4njIVKc2s3jq8I4lbXAo-120" value="" style="endArrow=none;html=1;rounded=0;entryX=0;entryY=0.75;entryDx=0;entryDy=0;entryPerimeter=0;" edge="1" parent="1" target="4njIVKc2s3jq8I4lbXAo-99">
          <mxGeometry width="50" height="50" relative="1" as="geometry">
            <mxPoint x="240" y="500" as="sourcePoint" />
            <mxPoint x="430" y="475" as="targetPoint" />
            <Array as="points">
              <mxPoint x="430" y="500" />
            </Array>
          </mxGeometry>
        </mxCell>
        <mxCell id="4njIVKc2s3jq8I4lbXAo-121" value="" style="verticalLabelPosition=bottom;shadow=0;dashed=0;align=center;html=1;verticalAlign=top;shape=mxgraph.electrical.logic_gates.d_type_flip-flop;" vertex="1" parent="1">
          <mxGeometry x="250" y="530" width="100" height="60" as="geometry" />
        </mxCell>
        <mxCell id="4njIVKc2s3jq8I4lbXAo-122" value="" style="verticalLabelPosition=bottom;shadow=0;dashed=0;align=center;html=1;verticalAlign=top;shape=mxgraph.electrical.logic_gates.d_type_flip-flop;" vertex="1" parent="1">
          <mxGeometry x="80" y="530" width="100" height="60" as="geometry" />
        </mxCell>
        <mxCell id="4njIVKc2s3jq8I4lbXAo-124" value="" style="verticalLabelPosition=bottom;shadow=0;dashed=0;align=center;html=1;verticalAlign=top;shape=mxgraph.electrical.logic_gates.d_type_flip-flop;" vertex="1" parent="1">
          <mxGeometry x="440" y="530" width="100" height="60" as="geometry" />
        </mxCell>
        <mxCell id="4njIVKc2s3jq8I4lbXAo-125" value="" style="verticalLabelPosition=bottom;shadow=0;dashed=0;align=center;html=1;verticalAlign=top;shape=mxgraph.electrical.logic_gates.d_type_flip-flop;" vertex="1" parent="1">
          <mxGeometry x="60" y="645" width="140" height="70" as="geometry" />
        </mxCell>
        <mxCell id="4njIVKc2s3jq8I4lbXAo-126" value="" style="verticalLabelPosition=bottom;shadow=0;dashed=0;align=center;html=1;verticalAlign=top;shape=mxgraph.electrical.logic_gates.d_type_flip-flop;" vertex="1" parent="1">
          <mxGeometry x="240" y="645" width="140" height="70" as="geometry" />
        </mxCell>
        <mxCell id="4njIVKc2s3jq8I4lbXAo-128" value="" style="verticalLabelPosition=bottom;shadow=0;dashed=0;align=center;html=1;verticalAlign=top;shape=mxgraph.electrical.logic_gates.d_type_flip-flop;" vertex="1" parent="1">
          <mxGeometry x="430" y="645" width="140" height="70" as="geometry" />
        </mxCell>
        <mxCell id="4njIVKc2s3jq8I4lbXAo-129" style="edgeStyle=orthogonalEdgeStyle;rounded=0;orthogonalLoop=1;jettySize=auto;html=1;exitX=1;exitY=0.25;exitDx=0;exitDy=0;exitPerimeter=0;entryX=0;entryY=0.25;entryDx=0;entryDy=0;entryPerimeter=0;" edge="1" parent="1" source="4njIVKc2s3jq8I4lbXAo-122" target="4njIVKc2s3jq8I4lbXAo-121">
          <mxGeometry relative="1" as="geometry" />
        </mxCell>
        <mxCell id="4njIVKc2s3jq8I4lbXAo-130" style="edgeStyle=orthogonalEdgeStyle;rounded=0;orthogonalLoop=1;jettySize=auto;html=1;exitX=1;exitY=0.25;exitDx=0;exitDy=0;exitPerimeter=0;entryX=0;entryY=0.25;entryDx=0;entryDy=0;entryPerimeter=0;" edge="1" parent="1" source="4njIVKc2s3jq8I4lbXAo-121" target="4njIVKc2s3jq8I4lbXAo-124">
          <mxGeometry relative="1" as="geometry" />
        </mxCell>
        <mxCell id="4njIVKc2s3jq8I4lbXAo-132" value="" style="endArrow=none;html=1;rounded=0;entryX=0;entryY=0.75;entryDx=0;entryDy=0;entryPerimeter=0;" edge="1" parent="1" target="4njIVKc2s3jq8I4lbXAo-122">
          <mxGeometry width="50" height="50" relative="1" as="geometry">
            <mxPoint x="-20" y="610" as="sourcePoint" />
            <mxPoint x="80" y="580" as="targetPoint" />
            <Array as="points">
              <mxPoint x="80" y="610" />
            </Array>
          </mxGeometry>
        </mxCell>
        <mxCell id="4njIVKc2s3jq8I4lbXAo-133" value="" style="endArrow=none;html=1;rounded=0;entryX=0;entryY=0.75;entryDx=0;entryDy=0;entryPerimeter=0;" edge="1" parent="1" target="4njIVKc2s3jq8I4lbXAo-121">
          <mxGeometry width="50" height="50" relative="1" as="geometry">
            <mxPoint x="80" y="610" as="sourcePoint" />
            <mxPoint x="250" y="580" as="targetPoint" />
            <Array as="points">
              <mxPoint x="250" y="610" />
            </Array>
          </mxGeometry>
        </mxCell>
        <mxCell id="4njIVKc2s3jq8I4lbXAo-134" value="" style="endArrow=none;html=1;rounded=0;entryX=0;entryY=0.75;entryDx=0;entryDy=0;entryPerimeter=0;" edge="1" parent="1" target="4njIVKc2s3jq8I4lbXAo-124">
          <mxGeometry width="50" height="50" relative="1" as="geometry">
            <mxPoint x="250" y="610" as="sourcePoint" />
            <mxPoint x="440" y="560" as="targetPoint" />
            <Array as="points">
              <mxPoint x="440" y="610" />
            </Array>
          </mxGeometry>
        </mxCell>
        <mxCell id="4njIVKc2s3jq8I4lbXAo-135" style="edgeStyle=orthogonalEdgeStyle;rounded=0;orthogonalLoop=1;jettySize=auto;html=1;exitX=1;exitY=0.25;exitDx=0;exitDy=0;exitPerimeter=0;entryX=0;entryY=0.25;entryDx=0;entryDy=0;entryPerimeter=0;" edge="1" parent="1" source="4njIVKc2s3jq8I4lbXAo-126" target="4njIVKc2s3jq8I4lbXAo-128">
          <mxGeometry relative="1" as="geometry" />
        </mxCell>
        <mxCell id="4njIVKc2s3jq8I4lbXAo-136" style="edgeStyle=orthogonalEdgeStyle;rounded=0;orthogonalLoop=1;jettySize=auto;html=1;exitX=1;exitY=0.25;exitDx=0;exitDy=0;exitPerimeter=0;entryX=0;entryY=0.25;entryDx=0;entryDy=0;entryPerimeter=0;" edge="1" parent="1" source="4njIVKc2s3jq8I4lbXAo-125" target="4njIVKc2s3jq8I4lbXAo-126">
          <mxGeometry relative="1" as="geometry" />
        </mxCell>
        <mxCell id="4njIVKc2s3jq8I4lbXAo-140" value="" style="endArrow=none;html=1;rounded=0;entryX=0;entryY=0.75;entryDx=0;entryDy=0;entryPerimeter=0;" edge="1" parent="1" target="4njIVKc2s3jq8I4lbXAo-125">
          <mxGeometry width="50" height="50" relative="1" as="geometry">
            <mxPoint x="-20" y="500" as="sourcePoint" />
            <mxPoint x="70" y="720" as="targetPoint" />
            <Array as="points">
              <mxPoint x="-20" y="730" />
              <mxPoint x="10" y="730" />
              <mxPoint x="60" y="730" />
            </Array>
          </mxGeometry>
        </mxCell>
        <mxCell id="4njIVKc2s3jq8I4lbXAo-141" value="" style="endArrow=none;html=1;rounded=0;entryX=0;entryY=0.75;entryDx=0;entryDy=0;entryPerimeter=0;" edge="1" parent="1" target="4njIVKc2s3jq8I4lbXAo-126">
          <mxGeometry width="50" height="50" relative="1" as="geometry">
            <mxPoint x="60" y="730" as="sourcePoint" />
            <mxPoint x="240" y="705" as="targetPoint" />
            <Array as="points">
              <mxPoint x="240" y="730" />
            </Array>
          </mxGeometry>
        </mxCell>
        <mxCell id="4njIVKc2s3jq8I4lbXAo-142" value="" style="endArrow=none;html=1;rounded=0;entryX=0;entryY=0.75;entryDx=0;entryDy=0;entryPerimeter=0;" edge="1" parent="1" target="4njIVKc2s3jq8I4lbXAo-128">
          <mxGeometry width="50" height="50" relative="1" as="geometry">
            <mxPoint x="240" y="730" as="sourcePoint" />
            <mxPoint x="430" y="705" as="targetPoint" />
            <Array as="points">
              <mxPoint x="430" y="730" />
            </Array>
          </mxGeometry>
        </mxCell>
        <mxCell id="4njIVKc2s3jq8I4lbXAo-143" value="DATA_OUT_VALID" style="text;html=1;align=center;verticalAlign=middle;whiteSpace=wrap;rounded=0;" vertex="1" parent="1">
          <mxGeometry x="570" y="530" width="60" height="30" as="geometry" />
        </mxCell>
        <mxCell id="4njIVKc2s3jq8I4lbXAo-144" value="DATA_OUT" style="text;html=1;align=center;verticalAlign=middle;whiteSpace=wrap;rounded=0;" vertex="1" parent="1">
          <mxGeometry x="580" y="645" width="60" height="30" as="geometry" />
        </mxCell>
        <mxCell id="4njIVKc2s3jq8I4lbXAo-145" value="" style="endArrow=classic;html=1;rounded=0;entryX=0.523;entryY=-0.093;entryDx=0;entryDy=0;entryPerimeter=0;" edge="1" parent="1" target="4njIVKc2s3jq8I4lbXAo-35">
          <mxGeometry width="50" height="50" relative="1" as="geometry">
            <mxPoint x="831" y="170" as="sourcePoint" />
            <mxPoint x="810" y="80" as="targetPoint" />
            <Array as="points">
              <mxPoint x="860" y="170" />
              <mxPoint x="880" y="170" />
              <mxPoint x="880" y="80" />
              <mxPoint x="801" y="80" />
            </Array>
          </mxGeometry>
        </mxCell>
        <mxCell id="4njIVKc2s3jq8I4lbXAo-146" value="" style="endArrow=classic;html=1;rounded=0;entryX=0;entryY=0.25;entryDx=0;entryDy=0;entryPerimeter=0;" edge="1" parent="1" target="4njIVKc2s3jq8I4lbXAo-93">
          <mxGeometry width="50" height="50" relative="1" as="geometry">
            <mxPoint x="880" y="170" as="sourcePoint" />
            <mxPoint x="10" y="320" as="targetPoint" />
            <Array as="points">
              <mxPoint x="900" y="170" />
              <mxPoint x="920" y="170" />
              <mxPoint x="920" y="290" />
              <mxPoint x="500" y="290" />
              <mxPoint x="80" y="290" />
            </Array>
          </mxGeometry>
        </mxCell>
        <mxCell id="4njIVKc2s3jq8I4lbXAo-147" value="" style="endArrow=classic;html=1;rounded=0;entryX=0;entryY=0.25;entryDx=0;entryDy=0;entryPerimeter=0;" edge="1" parent="1">
          <mxGeometry width="50" height="50" relative="1" as="geometry">
            <mxPoint x="880" y="400" as="sourcePoint" />
            <mxPoint x="80" y="545" as="targetPoint" />
            <Array as="points">
              <mxPoint x="900" y="400" />
              <mxPoint x="920" y="400" />
              <mxPoint x="920" y="520" />
              <mxPoint x="500" y="520" />
              <mxPoint x="80" y="520" />
            </Array>
          </mxGeometry>
        </mxCell>
        <mxCell id="4njIVKc2s3jq8I4lbXAo-148" value="" style="endArrow=classic;html=1;rounded=0;entryX=0.523;entryY=-0.093;entryDx=0;entryDy=0;entryPerimeter=0;" edge="1" parent="1">
          <mxGeometry width="50" height="50" relative="1" as="geometry">
            <mxPoint x="830" y="400" as="sourcePoint" />
            <mxPoint x="800" y="357" as="targetPoint" />
            <Array as="points">
              <mxPoint x="859" y="400" />
              <mxPoint x="879" y="400" />
              <mxPoint x="879" y="310" />
              <mxPoint x="800" y="310" />
            </Array>
          </mxGeometry>
        </mxCell>
        <mxCell id="4njIVKc2s3jq8I4lbXAo-149" value="" style="endArrow=classic;html=1;rounded=0;exitX=1.01;exitY=0.692;exitDx=0;exitDy=0;exitPerimeter=0;entryX=0;entryY=0.25;entryDx=0;entryDy=0;entryPerimeter=0;" edge="1" parent="1" source="4njIVKc2s3jq8I4lbXAo-100" target="4njIVKc2s3jq8I4lbXAo-125">
          <mxGeometry width="50" height="50" relative="1" as="geometry">
            <mxPoint x="860" y="390" as="sourcePoint" />
            <mxPoint x="60" y="660" as="targetPoint" />
            <Array as="points">
              <mxPoint x="880" y="443" />
              <mxPoint x="880" y="480" />
              <mxPoint x="880" y="510" />
              <mxPoint x="480" y="510" />
              <mxPoint x="60" y="510" />
            </Array>
          </mxGeometry>
        </mxCell>
        <mxCell id="4njIVKc2s3jq8I4lbXAo-152" value="" style="endArrow=classic;html=1;rounded=0;entryX=0;entryY=0.25;entryDx=0;entryDy=0;exitX=1.01;exitY=0.692;exitDx=0;exitDy=0;exitPerimeter=0;entryPerimeter=0;" edge="1" parent="1" target="4njIVKc2s3jq8I4lbXAo-96">
          <mxGeometry width="50" height="50" relative="1" as="geometry">
            <mxPoint x="832" y="213" as="sourcePoint" />
            <mxPoint x="60" y="430" as="targetPoint" />
            <Array as="points">
              <mxPoint x="880" y="213" />
              <mxPoint x="880" y="250" />
              <mxPoint x="880" y="280" />
              <mxPoint x="480" y="280" />
              <mxPoint x="60" y="280" />
            </Array>
          </mxGeometry>
        </mxCell>
        <mxCell id="4njIVKc2s3jq8I4lbXAo-153" value="" style="endArrow=classic;html=1;rounded=0;exitX=1;exitY=0.25;exitDx=0;exitDy=0;exitPerimeter=0;fontColor=#EA6B66;fillColor=#f8cecc;strokeColor=#b85450;" edge="1" parent="1" source="4njIVKc2s3jq8I4lbXAo-9">
          <mxGeometry width="50" height="50" relative="1" as="geometry">
            <mxPoint x="200" y="200" as="sourcePoint" />
            <mxPoint x="200" y="170" as="targetPoint" />
          </mxGeometry>
        </mxCell>
        <mxCell id="4njIVKc2s3jq8I4lbXAo-154" value="P9" style="text;html=1;align=center;verticalAlign=middle;whiteSpace=wrap;rounded=0;fontColor=#EA6B66;" vertex="1" parent="1">
          <mxGeometry x="200" y="162.5" width="30" height="15" as="geometry" />
        </mxCell>
        <mxCell id="4njIVKc2s3jq8I4lbXAo-157" value="" style="endArrow=classic;html=1;rounded=0;exitX=1;exitY=0.25;exitDx=0;exitDy=0;exitPerimeter=0;fontColor=#EA6B66;fillColor=#f8cecc;strokeColor=#b85450;" edge="1" parent="1">
          <mxGeometry width="50" height="50" relative="1" as="geometry">
            <mxPoint x="390" y="203" as="sourcePoint" />
            <mxPoint x="390" y="170" as="targetPoint" />
          </mxGeometry>
        </mxCell>
        <mxCell id="4njIVKc2s3jq8I4lbXAo-158" value="P8" style="text;html=1;align=center;verticalAlign=middle;whiteSpace=wrap;rounded=0;fontColor=#EA6B66;" vertex="1" parent="1">
          <mxGeometry x="390" y="162.5" width="30" height="15" as="geometry" />
        </mxCell>
        <mxCell id="4njIVKc2s3jq8I4lbXAo-159" value="" style="endArrow=classic;html=1;rounded=0;exitX=1;exitY=0.25;exitDx=0;exitDy=0;exitPerimeter=0;fontColor=#EA6B66;fillColor=#f8cecc;strokeColor=#b85450;" edge="1" parent="1">
          <mxGeometry width="50" height="50" relative="1" as="geometry">
            <mxPoint x="560" y="203" as="sourcePoint" />
            <mxPoint x="560" y="170" as="targetPoint" />
          </mxGeometry>
        </mxCell>
        <mxCell id="4njIVKc2s3jq8I4lbXAo-160" value="P7" style="text;html=1;align=center;verticalAlign=middle;whiteSpace=wrap;rounded=0;fontColor=#EA6B66;" vertex="1" parent="1">
          <mxGeometry x="560" y="162.5" width="30" height="15" as="geometry" />
        </mxCell>
        <mxCell id="4njIVKc2s3jq8I4lbXAo-161" value="" style="endArrow=classic;html=1;rounded=0;exitX=1;exitY=0.25;exitDx=0;exitDy=0;exitPerimeter=0;fontColor=#EA6B66;fillColor=#f8cecc;strokeColor=#b85450;" edge="1" parent="1">
          <mxGeometry width="50" height="50" relative="1" as="geometry">
            <mxPoint x="200" y="430.5" as="sourcePoint" />
            <mxPoint x="200" y="397.5" as="targetPoint" />
          </mxGeometry>
        </mxCell>
        <mxCell id="4njIVKc2s3jq8I4lbXAo-162" value="P6" style="text;html=1;align=center;verticalAlign=middle;whiteSpace=wrap;rounded=0;fontColor=#EA6B66;" vertex="1" parent="1">
          <mxGeometry x="200" y="390" width="30" height="15" as="geometry" />
        </mxCell>
        <mxCell id="4njIVKc2s3jq8I4lbXAo-163" value="" style="endArrow=classic;html=1;rounded=0;exitX=1;exitY=0.25;exitDx=0;exitDy=0;exitPerimeter=0;fontColor=#EA6B66;fillColor=#f8cecc;strokeColor=#b85450;" edge="1" parent="1">
          <mxGeometry width="50" height="50" relative="1" as="geometry">
            <mxPoint x="390" y="430.5" as="sourcePoint" />
            <mxPoint x="390" y="397.5" as="targetPoint" />
          </mxGeometry>
        </mxCell>
        <mxCell id="4njIVKc2s3jq8I4lbXAo-164" value="P5" style="text;html=1;align=center;verticalAlign=middle;whiteSpace=wrap;rounded=0;fontColor=#EA6B66;" vertex="1" parent="1">
          <mxGeometry x="390" y="390" width="30" height="15" as="geometry" />
        </mxCell>
        <mxCell id="4njIVKc2s3jq8I4lbXAo-165" value="" style="endArrow=classic;html=1;rounded=0;exitX=1;exitY=0.25;exitDx=0;exitDy=0;exitPerimeter=0;fontColor=#EA6B66;fillColor=#f8cecc;strokeColor=#b85450;" edge="1" parent="1">
          <mxGeometry width="50" height="50" relative="1" as="geometry">
            <mxPoint x="570" y="430.5" as="sourcePoint" />
            <mxPoint x="570" y="397.5" as="targetPoint" />
          </mxGeometry>
        </mxCell>
        <mxCell id="4njIVKc2s3jq8I4lbXAo-166" value="P4" style="text;html=1;align=center;verticalAlign=middle;whiteSpace=wrap;rounded=0;fontColor=#EA6B66;" vertex="1" parent="1">
          <mxGeometry x="570" y="390" width="30" height="15" as="geometry" />
        </mxCell>
        <mxCell id="4njIVKc2s3jq8I4lbXAo-167" value="" style="endArrow=classic;html=1;rounded=0;exitX=1;exitY=0.25;exitDx=0;exitDy=0;exitPerimeter=0;fontColor=#EA6B66;fillColor=#f8cecc;strokeColor=#b85450;" edge="1" parent="1">
          <mxGeometry width="50" height="50" relative="1" as="geometry">
            <mxPoint x="200" y="660.5" as="sourcePoint" />
            <mxPoint x="200" y="627.5" as="targetPoint" />
          </mxGeometry>
        </mxCell>
        <mxCell id="4njIVKc2s3jq8I4lbXAo-168" value="P3" style="text;html=1;align=center;verticalAlign=middle;whiteSpace=wrap;rounded=0;fontColor=#EA6B66;" vertex="1" parent="1">
          <mxGeometry x="200" y="620" width="30" height="15" as="geometry" />
        </mxCell>
        <mxCell id="4njIVKc2s3jq8I4lbXAo-169" value="" style="endArrow=classic;html=1;rounded=0;exitX=1;exitY=0.25;exitDx=0;exitDy=0;exitPerimeter=0;fontColor=#EA6B66;fillColor=#f8cecc;strokeColor=#b85450;" edge="1" parent="1">
          <mxGeometry width="50" height="50" relative="1" as="geometry">
            <mxPoint x="390" y="660.5" as="sourcePoint" />
            <mxPoint x="390" y="627.5" as="targetPoint" />
          </mxGeometry>
        </mxCell>
        <mxCell id="4njIVKc2s3jq8I4lbXAo-170" value="P2" style="text;html=1;align=center;verticalAlign=middle;whiteSpace=wrap;rounded=0;fontColor=#EA6B66;" vertex="1" parent="1">
          <mxGeometry x="390" y="620" width="30" height="15" as="geometry" />
        </mxCell>
        <mxCell id="4njIVKc2s3jq8I4lbXAo-171" value="" style="endArrow=classic;html=1;rounded=0;exitX=1;exitY=0.25;exitDx=0;exitDy=0;exitPerimeter=0;fontColor=#EA6B66;fillColor=#f8cecc;strokeColor=#b85450;" edge="1" parent="1">
          <mxGeometry width="50" height="50" relative="1" as="geometry">
            <mxPoint x="560" y="660.5" as="sourcePoint" />
            <mxPoint x="560" y="627.5" as="targetPoint" />
          </mxGeometry>
        </mxCell>
        <mxCell id="4njIVKc2s3jq8I4lbXAo-172" value="P1" style="text;html=1;align=center;verticalAlign=middle;whiteSpace=wrap;rounded=0;fontColor=#EA6B66;" vertex="1" parent="1">
          <mxGeometry x="560" y="620" width="30" height="15" as="geometry" />
        </mxCell>
      </root>
    </mxGraphModel>
  </diagram>
</mxfile>
